# xmcd CD database file
#
# Track frame offsets:
#	150
#	12400
#	30675
#	48925
#	74537
#	90662
#	110297
#	127810
#	141035
#	168250
#	183425
#	201987
#
# Disc length: 2909 seconds
#
# Revision: 2
# Processed by: cddbd v1.4PL0 Copyright (c) Steve Scherf et al.
# Submitted via: CDex 1.40Release
#
DISCID=9f0b5b0c
DTITLE=Kinsey Report - Edge Of The City
DYEAR=1987
DGENRE=Blues
TTITLE0=Poor Man's Relief
TTITLE1=I Can't Let You Go
TTITLE2=Got To Pay Someday
TTITLE3=Answering Machine
TTITLE4=Give Me What I Want
TTITLE5=Full Moon On Main Street
TTITLE6=Lucky Charm
TTITLE7=Back Door Man
TTITLE8=The Game Of Love
TTITLE9=Come To Me
TTITLE10=No Stranger To The Blues
TTITLE11=Corner Of The Blanket
EXTD=YEAR: 1987 ID3G: 0
EXTT0=
EXTT1=
EXTT2=
EXTT3=
EXTT4=
EXTT5=
EXTT6=
EXTT7=
EXTT8=
EXTT9=
EXTT10=
EXTT11=
PLAYORDER=
